{"title":"The Painted Veil [2006] BRRip XviD - CODY","uid":6879040,"size":944756172,"categoryP":"video","categoryS":"movies","magnet":"?xt=urn:btih:8e79bf9c94a262b143cb085e55e0c3cb6116fdcd&amp;dn=The+Painted+Veil+%5B2006%5D+BRRip+XviD+-+CODY&amp;tr=udp%3A%2F%2Ftracker.openbittorrent.com%3A80&amp;tr=udp%3A%2F%2Fopen.demonii.com%3A1337&amp;tr=udp%3A%2F%2Ftracker.coppersurfer.tk%3A6969&amp;tr=udp%3A%2F%2Fexodus.desync.com%3A6969","seeders":1,"leechers":0,"uploader":"CODYBOSS1969","files":4,"time":1323571861,"description":"General\nComplete name                    : The Painted Veil [2006] BRRip XviD - CODY.avi\nFormat                           : AVI\nFormat/Info                      : Audio Video Interleave\nFile size                        : 901 MiB\nDuration                         : 2h 4mn\nOverall bit rate                 : 1 008 Kbps\nWriting application              : VirtualDubMod 1.5.10.2 (build 2540/release)\nWriting library                  : VirtualDubMod build 2540/release\n\nVideo\nID                               : 0\nFormat                           : MPEG-4 Visual\nFormat profile                   : Advanced Simple@L5\nFormat settings, BVOP            : 4\nFormat settings, QPel            : No\nFormat settings, GMC             : No warppoints\nFormat settings, Matrix          : Default (H.263)\nCodec ID                         : XVID\nCodec ID/Hint                    : XviD\nDuration                         : 2h 4mn\nBit rate                         : 871 Kbps\nWidth                            : 720 pixels\nHeight                           : 296 pixels\nDisplay aspect ratio             : 2.40:1\nFrame rate                       : 23.976 fps\nColor space                      : YUV\nChroma subsampling               : 4:2:0\nBit depth                        : 8 bits\nScan type                        : Progressive\nCompression mode                 : Lossy\nBits/(Pixel*Frame)               : 0.170\nStream size                      : 778 MiB (86%)\nWriting library                  : XviD 1.2.0.dev47 (UTC 2006-11-01)\n\nAudio\nID                               : 1\nFormat                           : MPEG Audio\nFormat version                   : Version 1\nFormat profile                   : Layer 3\nCodec ID                         : 55\nCodec ID/Hint                    : MP3\nDuration                         : 2h 4mn\nBit rate mode                    : Constant\nBit rate                         : 128 Kbps\nChannel(s)                       : 2 channels\nSampling rate                    : 48.0 KHz\nCompression mode                 : Lossy\nStream size                      : 114 MiB (13%)\nAlignment                        : Aligned on interleaves\nInterleave, duration             : 42 ms (1.00 video frame)\nInterleave, preload duration     : 504 ms\nWriting library                  : LAME3.97 \nEncoding settings                : -m s -V 4 -q 2 -lowpass 17 -b 128\n\n\n\n\nIMDB link:                        &lt;a href=&quot; http://www.imdb.com/title/tt0446755/&quot; rel=&quot;nofollow&quot; target=&quot;_NEW&quot;&gt; http://www.imdb.com/title/tt0446755/&lt;/a&gt;\n\n\n\n\nSubtitles included               : Romanian\n\n\n\n\nPlease seed at least 1,5:1. This way this torrent has a chance to survive !\n\n\n\n\nThanks. Enjoy !!!\n","torrent":{"xt":"urn:btih:8e79bf9c94a262b143cb085e55e0c3cb6116fdcd","amp;dn":"The+Painted+Veil+%5B2006%5D+BRRip+XviD+-+CODY","amp;tr":["udp%3A%2F%2Ftracker.openbittorrent.com%3A80","udp%3A%2F%2Fopen.demonii.com%3A1337","udp%3A%2F%2Ftracker.coppersurfer.tk%3A6969","udp%3A%2F%2Fexodus.desync.com%3A6969"],"infoHash":"8e79bf9c94a262b143cb085e55e0c3cb6116fdcd","infoHashBuffer":{"type":"Buffer","data":[142,121,191,156,148,162,98,177,67,203,8,94,85,224,195,203,97,22,253,205]},"announce":[],"urlList":[]}}